<svg width="36" height="36" viewBox="0 0 36 36" fill="none" xmlns="http://www.w3.org/2000/svg">
<g clip-path="url(#clip0_8247_234)">
<path d="M34.945 36H1.05468C0.472215 36 0 35.5278 0 34.9453C0 34.3628 0.472215 33.8906 1.05468 33.8906H34.945C35.5275 33.8906 35.9997 34.3628 35.9997 34.9453C35.9997 35.5278 35.5275 36 34.945 36Z" fill="white"/>
<path d="M7.45308 35.9999H3.23437C2.6519 35.9999 2.17969 35.5277 2.17969 34.9452V27.2109C2.17969 26.2417 2.96824 25.4531 3.93749 25.4531H6.74996C7.71921 25.4531 8.50776 26.2417 8.50776 27.2109V34.9452C8.50776 35.5277 8.03555 35.9999 7.45308 35.9999ZM4.28905 33.8906H6.3984V27.5625H4.28905V33.8906ZM6.74996 27.5625H6.75067H6.74996Z" fill="white"/>
<path d="M15.8906 35.9999H11.6719C11.0894 35.9999 10.6172 35.5277 10.6172 34.9452V24.6797C10.6172 23.7104 11.4057 22.9219 12.375 22.9219H15.1875C16.1567 22.9219 16.9453 23.7104 16.9453 24.6797V34.9452C16.9453 35.5277 16.473 35.9999 15.8906 35.9999ZM12.7265 33.8905H14.8359V25.0312H12.7265V33.8905ZM15.1875 25.0312H15.1882H15.1875Z" fill="white"/>
<path d="M24.3281 36.0001H20.1094C19.5269 36.0001 19.0547 35.5279 19.0547 34.9454V20.8127C19.0547 19.8435 19.8432 19.0549 20.8125 19.0549H23.625C24.5942 19.0549 25.3828 19.8435 25.3828 20.8127V34.9454C25.3828 35.5279 24.9105 36.0001 24.3281 36.0001ZM21.164 33.8908H23.2734V21.1643H21.164V33.8908ZM23.625 21.1643H23.6257H23.625Z" fill="white"/>
<path d="M32.7656 36.0001H28.5469C27.9644 36.0001 27.4922 35.5278 27.4922 34.9454V13.7815C27.4922 12.8122 28.2807 12.0237 29.25 12.0237H32.0625C33.0317 12.0237 33.8203 12.8122 33.8203 13.7815V34.9454C33.8203 35.5278 33.348 36.0001 32.7656 36.0001ZM29.6015 33.8907H31.7109V14.133H29.6015V33.8907ZM32.0625 14.133H32.0632H32.0625Z" fill="white"/>
<path d="M1.05468 22.6621C0.472215 22.6621 0 22.1899 0 21.6074C0 21.025 0.472215 20.5528 1.05468 20.5528C7.25662 20.5528 14.0092 18.2943 20.0685 14.1935C25.6429 10.4209 30.0848 5.4752 32.2552 0.624446C32.4931 0.0927465 33.117 -0.14547 33.6486 0.0925356C34.1803 0.330401 34.4185 0.954279 34.1805 1.48598C31.8542 6.68534 27.1415 11.9538 21.2508 15.9404C14.8462 20.275 7.67364 22.6621 1.05468 22.6621Z" fill="white"/>
<path d="M34.9456 8.55536C34.4798 8.55536 34.0537 8.24458 33.9275 7.77334L32.4734 2.3466L27.0466 3.80072C26.4838 3.95161 25.9057 3.61763 25.7549 3.05499C25.6042 2.49236 25.938 1.91404 26.5007 1.76329L32.9462 0.0362184C33.509 -0.114601 34.0871 0.219381 34.2379 0.781947L35.9649 7.22744C36.1157 7.79008 35.7819 8.36839 35.2192 8.51914C35.1277 8.54361 35.0359 8.55536 34.9456 8.55536Z" fill="white"/>
</g>
<defs>
<clipPath id="clip0_8247_234">
<rect width="36" height="36" fill="white"/>
</clipPath>
</defs>
</svg>
