<svg width="40" height="40" viewBox="0 0 40 40" fill="none" xmlns="http://www.w3.org/2000/svg">
<g clip-path="url(#clip0_8247_251)">
<path fill-rule="evenodd" clip-rule="evenodd" d="M36.4409 13.4745C36.2769 13.4745 36.1363 13.4276 35.9957 13.3573L33.5821 12.0216L31.1685 13.3573C30.8639 13.5213 30.4655 13.4979 30.1609 13.287C29.8797 13.0761 29.7391 12.7012 29.8094 12.3497L30.3249 9.65491L28.3097 7.78028C28.0519 7.52251 27.9582 7.14759 28.0753 6.79609C28.1691 6.46803 28.4737 6.21027 28.8486 6.1634L31.5668 5.81191L32.7385 3.32802C32.8791 2.99996 33.2072 2.78906 33.5821 2.78906C33.9336 2.78906 34.2616 2.99996 34.4257 3.32802L35.5973 5.81191L38.3155 6.1634C38.6905 6.21027 38.9717 6.46803 39.0888 6.79609C39.206 7.14759 39.1123 7.52251 38.8545 7.78028L36.8393 9.65491L37.3548 12.3497C37.4251 12.7012 37.2845 13.0761 36.9799 13.287C36.8158 13.4042 36.6284 13.4745 36.4409 13.4745ZM9.14154 37.1886H3.68167C3.16614 37.1886 2.74435 36.7668 2.74435 36.2513V29.901H0.940017C0.588523 29.901 0.260462 29.7135 0.0964319 29.3854C-0.0441656 29.0574 -0.0207327 28.6824 0.190164 28.4012L5.67347 21.1136C5.8375 20.8793 6.11869 20.7387 6.42332 20.7387C6.70452 20.7387 6.98571 20.8793 7.17317 21.1136L12.5627 28.3309C12.7268 28.495 12.8205 28.7293 12.8205 28.9636C12.8205 29.4792 12.3987 29.901 11.8832 29.901H10.0789V36.2513C10.0789 36.7668 9.65706 37.1886 9.14154 37.1886ZM4.61899 35.314H8.20422V28.9636C8.20422 28.4481 8.62602 28.0263 9.14154 28.0263H10.0086L6.42332 23.246L2.81465 28.0263H3.68167C4.19719 28.0263 4.61899 28.4481 4.61899 28.9636V35.314ZM22.7326 37.1886H17.2493C16.7338 37.1886 16.3354 36.7668 16.3354 36.2513V27.1593H14.5311C14.1796 27.1593 13.8516 26.9484 13.6875 26.6438C13.5235 26.3157 13.5704 25.9408 13.7813 25.6596L19.2411 18.372C19.4286 18.1376 19.7098 17.997 19.991 17.997C20.2956 17.997 20.5768 18.1376 20.7408 18.372L26.1538 25.5893C26.3179 25.7533 26.4116 25.9642 26.4116 26.222C26.4116 26.7375 25.9898 27.1593 25.4743 27.1593H23.67V36.2513C23.67 36.7668 23.2482 37.1886 22.7326 37.1886ZM18.1866 35.314H21.7953V26.222C21.7953 25.7065 22.2171 25.2847 22.7326 25.2847H23.5997L19.991 20.4809L16.4057 25.2847H17.2493C17.7883 25.2847 18.1866 25.7065 18.1866 26.222V35.314ZM36.3237 37.1886H30.8404C30.3249 37.1886 29.9031 36.7668 29.9031 36.2513V24.4177H28.0988C27.7473 24.4177 27.4192 24.2068 27.2786 23.9021C27.1146 23.5741 27.138 23.1991 27.3489 22.9179L32.8322 15.6303C32.9963 15.396 33.2775 15.2554 33.5821 15.2554C33.8633 15.2554 34.1445 15.396 34.3319 15.6303L39.7449 22.8476C39.8855 23.0117 40.0027 23.2226 40.0027 23.4803C40.0027 23.9959 39.5809 24.4177 39.0654 24.4177C39.042 24.4177 39.042 24.4177 39.042 24.4177H37.261V36.2513C37.261 36.7668 36.8393 37.1886 36.3237 37.1886ZM31.7777 35.314H35.3864V23.4803C35.3864 22.9648 35.7848 22.543 36.3237 22.543H37.1673L33.5821 17.7393L29.9734 22.543H30.8404C31.356 22.543 31.7777 22.9648 31.7777 23.4803V35.314ZM3.5645 20.0591C3.35361 20.0591 3.16614 19.9888 3.00211 19.8717C2.72092 19.6608 2.55689 19.2858 2.62719 18.9343L3.14271 16.2396L1.15091 14.3649C0.893151 14.1072 0.775987 13.7322 0.893151 13.3807C1.01032 13.0527 1.31494 12.7949 1.66644 12.7481L4.40809 12.3966L5.5563 9.91267C5.72033 9.58461 6.04839 9.37371 6.42332 9.37371C6.77482 9.37371 7.10288 9.58461 7.26691 9.91267L8.43855 12.3966L11.1568 12.7481C11.5083 12.7949 11.8129 13.0527 11.9301 13.3807C12.0472 13.7322 11.9301 14.1072 11.6723 14.3649L9.6805 16.2396L10.196 18.9343C10.2663 19.2858 10.1023 19.6608 9.8211 19.8717C9.51647 20.0826 9.14154 20.106 8.81348 19.942L6.42332 18.6063L4.00973 19.942C3.86913 20.0123 3.7051 20.0591 3.5645 20.0591ZM3.89257 14.3649L4.80645 15.2319C5.04078 15.4428 5.15794 15.7709 5.08764 16.0755L4.85332 17.3409L5.95466 16.7317C6.23586 16.5676 6.58735 16.5676 6.86855 16.7317L7.96989 17.3409L7.73556 16.0755C7.66527 15.7709 7.78243 15.4428 8.01676 15.2319L8.93064 14.3649L7.6887 14.2009C7.36064 14.154 7.07944 13.9666 6.96228 13.6619L6.42332 12.5137L5.88436 13.6619C5.74377 13.9666 5.46257 14.154 5.13451 14.2009L3.89257 14.3649ZM17.1322 16.9894C16.9447 16.9894 16.7572 16.9191 16.5932 16.802C16.2886 16.5911 16.148 16.2161 16.2183 15.8646L16.7338 13.1698L14.742 11.2952C14.4608 11.0375 14.3671 10.6625 14.4842 10.311C14.6014 9.98297 14.906 9.72521 15.2575 9.67834L17.9758 9.35028L19.1474 6.84296C19.3114 6.5149 19.6395 6.304 19.991 6.304C20.3659 6.304 20.694 6.5149 20.8346 6.84296L22.0062 9.35028L24.7244 9.67834C25.0994 9.72521 25.404 9.98297 25.5212 10.311C25.6149 10.6625 25.5212 11.0375 25.2634 11.2952L23.2482 13.1698L23.7637 15.8646C23.834 16.2161 23.6934 16.5911 23.4122 16.802C23.1076 17.0128 22.7092 17.0363 22.4046 16.8722L19.991 15.5366L17.6008 16.8722C17.4602 16.9425 17.2962 16.9894 17.1322 16.9894ZM17.4602 11.2952L18.3975 12.1622C18.6319 12.3731 18.7256 12.7012 18.6787 13.0293L18.4444 14.2712L19.5458 13.6619C19.827 13.4979 20.155 13.4979 20.4362 13.6619L21.561 14.2712L21.3267 13.0293C21.2564 12.7012 21.3735 12.3731 21.6079 12.1622L22.5217 11.2952L21.2564 11.1312C20.9517 11.0843 20.6705 10.8969 20.5299 10.5922L19.991 9.44401L19.452 10.5922C19.3114 10.8969 19.0537 11.0843 18.7256 11.1312L17.4602 11.2952ZM33.5821 10.0298C33.7461 10.0298 33.8867 10.0533 34.0273 10.147L35.1521 10.7563L34.8943 9.51431C34.8475 9.18625 34.9412 8.85819 35.1755 8.64729L36.1128 7.78028L34.8475 7.61624C34.5194 7.56938 34.2616 7.38192 34.121 7.07729L33.5821 5.92907L33.0431 7.07729C32.9025 7.38192 32.6213 7.56938 32.3167 7.61624L31.0513 7.78028L31.9652 8.64729C32.1995 8.85819 32.3167 9.18625 32.2464 9.51431L32.0121 10.7563L33.1369 10.147C33.2775 10.0533 33.418 10.0298 33.5821 10.0298Z" fill="white"/>
</g>
<defs>
<clipPath id="clip0_8247_251">
<rect width="40" height="40" fill="white" transform="translate(0 0.000488281)"/>
</clipPath>
</defs>
</svg>
