<svg width="50" height="50" viewBox="0 0 50 50" fill="none" xmlns="http://www.w3.org/2000/svg">
<g clip-path="url(#clip0_8247_80)">
<path d="M49.0606 17.3161L25.6213 7.15912C25.2249 6.98733 24.7751 6.98733 24.3787 7.15912L0.939438 17.3161C-0.312999 17.8588 -0.313292 19.6409 0.939438 20.1836L9.37385 23.8385V33.5947C9.37385 38.8521 16.2376 42.9704 25 42.9704C33.7624 42.9704 40.6262 38.8521 40.6262 33.5947V23.8385L42.1888 23.1614V39.8451C42.1888 40.7081 42.8885 41.4078 43.7514 41.4078C44.6144 41.4078 45.314 40.7081 45.314 39.8451V21.8072L49.0606 20.1837C50.313 19.641 50.3132 17.8589 49.0606 17.3161ZM25 10.2959L44.5092 18.7499L42.9619 19.4204L25.1938 17.1993C24.3374 17.093 23.5564 17.6997 23.4494 18.5561C23.3424 19.4124 23.9498 20.1934 24.8062 20.3004L37.3209 21.8648L25 27.2039C13.978 22.4276 16.3255 23.4449 5.49085 18.7498L25 10.2959ZM37.5009 33.5948C37.5009 35.067 36.2926 36.5829 34.1856 37.7534C29.1675 40.5412 20.8472 40.5494 15.8145 37.7534C13.7075 36.5829 12.4991 35.067 12.4991 33.5948V25.1929L24.3787 30.3407C24.7744 30.5122 25.2241 30.5128 25.6213 30.3407L37.5009 25.1929V33.5948Z" fill="white"/>
</g>
<defs>
<clipPath id="clip0_8247_80">
<rect width="50" height="50" fill="white"/>
</clipPath>
</defs>
</svg>
