<svg width="40" height="40" viewBox="0 0 40 40" fill="none" xmlns="http://www.w3.org/2000/svg">
<path d="M38.6576 8.19808L35.8537 8.19795V5.29546C35.8537 4.63095 35.3676 4.06638 34.7103 3.96806C34.5956 3.95082 31.864 3.55405 28.5747 4.15257C24.9078 4.81977 21.9834 6.46516 19.9999 8.95256C18.0164 6.46516 15.0919 4.81977 11.4251 4.15257C8.13573 3.55419 5.40416 3.95082 5.28954 3.96806C4.63231 4.06651 4.14611 4.63109 4.14611 5.29546V8.19795H1.34222C0.601075 8.19795 0 8.79902 0 9.5403V34.8338C0 35.2684 0.21037 35.6761 0.564712 35.928C0.919054 36.1798 1.37333 36.2445 1.7837 36.1014C1.88444 36.0665 11.9427 32.6338 19.4429 36.055C19.7968 36.2164 20.2032 36.2164 20.5571 36.055C28.0363 32.6435 38.1161 36.0668 38.2163 36.1014C38.3601 36.1515 38.5091 36.1762 38.6575 36.1762C38.9327 36.1762 39.205 36.0916 39.4353 35.9281C39.7896 35.6762 40 35.2686 40 34.834V9.54043C39.9999 8.79916 39.3989 8.19808 38.6576 8.19808ZM2.68457 33.0379V10.8825H4.14611V28.758C4.14611 29.148 4.31675 29.5184 4.61184 29.7734C4.90692 30.0283 5.29938 30.1427 5.6851 30.0857C5.75917 30.0749 11.5903 29.2744 15.8505 32.1973C10.6027 31.3 5.35042 32.3379 2.68457 33.0379ZM18.6577 30.9868C16.7814 29.2915 14.3373 28.1451 11.4251 27.6153C10.0237 27.3602 8.72347 27.2858 7.68374 27.2858C7.37506 27.2858 7.08927 27.2924 6.83082 27.3028V6.52805H6.83068C9.41047 6.41169 15.6861 6.68751 18.6577 11.7249V30.9868ZM21.3421 11.7251C24.3031 6.7092 30.5886 6.42085 33.1692 6.53142V27.3028C32.0402 27.2573 30.3921 27.2845 28.5747 27.6153C25.6625 28.1451 23.2185 29.2913 21.3421 30.9868V11.7251ZM24.145 32.1981C28.4057 29.2734 34.2399 30.0748 34.3126 30.0856C34.6993 30.1436 35.0915 30.0299 35.3875 29.7751C35.6835 29.52 35.8537 29.1489 35.8537 28.758V10.8827H37.3153V33.0379C34.6486 32.3377 29.3942 31.2993 24.145 32.1981Z" fill="white"/>
</svg>
