<svg width="45" height="45" viewBox="0 0 45 45" fill="none" xmlns="http://www.w3.org/2000/svg">
<path d="M44.8258 16.1721C44.8273 15.5861 44.7014 15.0067 44.4568 14.4741C44.2122 13.9416 43.8547 13.4685 43.4092 13.0878C42.9636 12.7071 42.4406 12.4278 41.8764 12.2693C41.3122 12.1108 40.7203 12.0768 40.1416 12.1698C39.563 12.2627 39.0115 12.4804 38.5253 12.8076C38.0391 13.1348 37.6299 13.5639 37.326 14.065C37.022 14.5661 36.8307 15.1272 36.7652 15.7096C36.6997 16.292 36.7616 16.8817 36.9466 17.4378L33.7825 19.7405L31.7019 11.8444C32.397 11.4028 32.9407 10.7595 33.2602 10.0006C33.5798 9.2416 33.66 8.40317 33.4902 7.59739C33.3203 6.79161 32.9085 6.05689 32.3098 5.49148C31.7111 4.92608 30.9541 4.55694 30.1399 4.43344C29.3257 4.30993 28.4933 4.43795 27.7538 4.80036C27.0144 5.16278 26.4032 5.74232 26.002 6.46149C25.6009 7.18065 25.4288 8.00515 25.5089 8.82473C25.5891 9.64431 25.9175 10.4199 26.4503 11.0478L22.5016 17.3675L18.5528 11.0492C19.0852 10.4214 19.4132 9.64614 19.4931 8.82693C19.573 8.00772 19.4009 7.18365 18.9998 6.46489C18.5988 5.74613 17.9878 5.16693 17.2487 4.80474C16.5096 4.44255 15.6775 4.31463 14.8637 4.43808C14.0499 4.56152 13.2932 4.93045 12.6947 5.49555C12.0963 6.06064 11.6846 6.79496 11.5147 7.60033C11.3448 8.40571 11.4249 9.24375 11.7441 10.0024C12.0633 10.7611 12.6066 11.4042 13.3012 11.8458L11.2227 19.7433L8.05866 17.4406C8.31957 16.654 8.33241 15.8062 8.09545 15.0121C7.85849 14.218 7.38317 13.5159 6.73389 13.0009C6.0846 12.4859 5.29272 12.183 4.4655 12.133C3.63829 12.0831 2.81571 12.2886 2.1092 12.7218C1.40268 13.1549 0.84637 13.7948 0.51561 14.5546C0.18485 15.3145 0.0956276 16.1576 0.260028 16.9699C0.424429 17.7821 0.834509 18.5242 1.43472 19.0956C2.03493 19.667 2.79627 20.0402 3.61562 20.1645L5.63077 32.7757C4.74117 33.1044 3.99551 33.7355 3.52439 34.5585C3.05326 35.3816 2.88669 36.3442 3.05385 37.2777C3.221 38.2112 3.71123 39.0562 4.43868 39.6646C5.16613 40.2731 6.08444 40.6062 7.03281 40.6057H37.9703C38.9187 40.6062 39.837 40.2731 40.5644 39.6646C41.2919 39.0562 41.7821 38.2112 41.9493 37.2777C42.1164 36.3442 41.9498 35.3816 41.4787 34.5585C41.0076 33.7355 40.2619 33.1044 39.3723 32.7757L41.3896 20.1645C42.3448 20.0191 43.2163 19.5366 43.8466 18.8043C44.4768 18.072 44.8242 17.1383 44.8258 16.1721ZM29.5328 6.85574C29.8457 6.85574 30.1516 6.94853 30.4117 7.12236C30.6719 7.2962 30.8747 7.54328 30.9944 7.83236C31.1141 8.12143 31.1455 8.43953 31.0844 8.74641C31.0234 9.0533 30.8727 9.33519 30.6515 9.55644C30.4302 9.77769 30.1483 9.92836 29.8414 9.98941C29.5346 10.0504 29.2165 10.0191 28.9274 9.89938C28.6383 9.77964 28.3912 9.57687 28.2174 9.3167C28.0436 9.05654 27.9508 8.75067 27.9508 8.43777C27.9513 8.01836 28.1182 7.61629 28.4148 7.31972C28.7113 7.02316 29.1134 6.8563 29.5328 6.85574ZM15.4703 6.85574C15.7832 6.85574 16.0891 6.94853 16.3492 7.12236C16.6094 7.2962 16.8122 7.54328 16.9319 7.83236C17.0517 8.12143 17.083 8.43953 17.0219 8.74641C16.9609 9.0533 16.8102 9.33519 16.589 9.55644C16.3677 9.77769 16.0858 9.92836 15.7789 9.98941C15.4721 10.0504 15.154 10.0191 14.8649 9.89938C14.5758 9.77964 14.3287 9.57687 14.1549 9.3167C13.9811 9.05654 13.8883 8.75067 13.8883 8.43777C13.8888 8.01836 14.0557 7.61629 14.3523 7.31972C14.6488 7.02316 15.0509 6.8563 15.4703 6.85574ZM6.60601 19.429L11.2312 22.7921C11.393 22.9099 11.5811 22.9864 11.7792 23.015C11.9773 23.0436 12.1793 23.0234 12.3678 22.9562C12.5564 22.889 12.7256 22.7768 12.8609 22.6293C12.9963 22.4819 13.0936 22.3036 13.1444 22.11L15.6812 12.4702C15.9458 12.4565 16.2084 12.417 16.4652 12.3521L21.4574 20.3403C21.5681 20.5171 21.722 20.6629 21.9045 20.7639C22.087 20.865 22.2922 20.918 22.5009 20.918C22.7095 20.918 22.9147 20.865 23.0972 20.7639C23.2797 20.6629 23.4336 20.5171 23.5443 20.3403L28.5365 12.3521C28.7933 12.417 29.0559 12.4565 29.3205 12.4702L31.8573 22.11C31.9081 22.3036 32.0054 22.4819 32.1408 22.6293C32.2761 22.7768 32.4454 22.889 32.6339 22.9562C32.8224 23.0234 33.0245 23.0436 33.2225 23.015C33.4206 22.9864 33.6087 22.9099 33.7705 22.7921L38.3957 19.429C38.5734 19.56 38.7615 19.6762 38.9582 19.7764L36.9191 32.5198H8.08187L6.04281 19.7764C6.23973 19.6762 6.42809 19.56 6.60601 19.429ZM4.2203 17.7542C3.90741 17.7542 3.60154 17.6614 3.34138 17.4876C3.08121 17.3137 2.87844 17.0666 2.7587 16.7776C2.63896 16.4885 2.60763 16.1704 2.66867 15.8635C2.72972 15.5566 2.88039 15.2747 3.10164 15.0535C3.32289 14.8322 3.60478 14.6816 3.91167 14.6205C4.21855 14.5595 4.53664 14.5908 4.82572 14.7105C5.1148 14.8303 5.36188 15.0331 5.53572 15.2932C5.70955 15.5534 5.80234 15.8593 5.80234 16.1721C5.80178 16.5916 5.63492 16.9936 5.33835 17.2902C5.04179 17.5868 4.63971 17.7536 4.2203 17.7542ZM39.5523 36.5628C39.5518 36.9822 39.3849 37.3843 39.0884 37.6808C38.7918 37.9774 38.3897 38.1442 37.9703 38.1448H7.03281C6.61322 38.1448 6.21083 37.9781 5.91414 37.6814C5.61745 37.3848 5.45077 36.9824 5.45077 36.5628C5.45077 36.1432 5.61745 35.7408 5.91414 35.4441C6.21083 35.1474 6.61322 34.9807 7.03281 34.9807H37.9703C38.3897 34.9813 38.7918 35.1482 39.0884 35.4447C39.3849 35.7413 39.5518 36.1434 39.5523 36.5628ZM39.2008 16.1721C39.2008 15.8593 39.2936 15.5534 39.4674 15.2932C39.6412 15.0331 39.8883 14.8303 40.1774 14.7105C40.4665 14.5908 40.7846 14.5595 41.0914 14.6205C41.3983 14.6816 41.6802 14.8322 41.9015 15.0535C42.1227 15.2747 42.2734 15.5566 42.3344 15.8635C42.3955 16.1704 42.3642 16.4885 42.2444 16.7776C42.1247 17.0666 41.9219 17.3137 41.6617 17.4876C41.4016 17.6614 41.0957 17.7542 40.7828 17.7542C40.3634 17.7536 39.9613 17.5868 39.6648 17.2902C39.3682 16.9936 39.2013 16.5916 39.2008 16.1721Z" fill="#D04D42"/>
<path d="M22.4961 28.6523C23.1757 28.6523 23.7266 28.1014 23.7266 27.4219C23.7266 26.7423 23.1757 26.1914 22.4961 26.1914C21.8165 26.1914 21.2656 26.7423 21.2656 27.4219C21.2656 28.1014 21.8165 28.6523 22.4961 28.6523Z" fill="#D04D42"/>
<path d="M16.8711 28.6523C17.5507 28.6523 18.1016 28.1014 18.1016 27.4219C18.1016 26.7423 17.5507 26.1914 16.8711 26.1914C16.1915 26.1914 15.6406 26.7423 15.6406 27.4219C15.6406 28.1014 16.1915 28.6523 16.8711 28.6523Z" fill="#D04D42"/>
<path d="M28.1211 28.6523C28.8007 28.6523 29.3516 28.1014 29.3516 27.4219C29.3516 26.7423 28.8007 26.1914 28.1211 26.1914C27.4415 26.1914 26.8906 26.7423 26.8906 27.4219C26.8906 28.1014 27.4415 28.6523 28.1211 28.6523Z" fill="#D04D42"/>
</svg>
