<svg width="44" height="44" viewBox="0 0 44 44" fill="none" xmlns="http://www.w3.org/2000/svg">
<path d="M22.0024 0C12.4377 0 4.65625 7.78138 4.65625 17.3461C4.65625 23.307 7.67884 28.5749 12.2716 31.6986V42.7307C12.2716 43.1614 12.49 43.5627 12.8517 43.7965C13.2132 44.0303 13.6689 44.0647 14.0617 43.8881L22.0024 40.3149L29.9431 43.8882C30.1094 43.963 30.2869 44 30.4638 44C30.7048 44 30.9445 43.9314 31.1531 43.7966C31.5147 43.5627 31.7332 43.1614 31.7332 42.7308V31.6987C36.3259 28.575 39.3485 23.3071 39.3485 17.3462C39.3485 7.78138 31.5671 0 22.0024 0ZM29.1947 40.7679L22.5232 37.7658C22.3576 37.6912 22.1799 37.6539 22.0024 37.6539C21.8248 37.6539 21.6472 37.6911 21.4816 37.7657L14.8101 40.7678V33.1335C15.448 33.4244 16.1028 33.6743 16.7699 33.8851C16.8077 33.8971 16.8455 33.9094 16.8834 33.9211C16.9686 33.9473 17.054 33.9726 17.1395 33.9974C17.2029 34.016 17.2662 34.0343 17.3297 34.0522C17.3987 34.0715 17.468 34.0901 17.5373 34.1085C17.618 34.1301 17.699 34.1511 17.7802 34.1716C17.8376 34.1859 17.8951 34.2 17.9527 34.2137C18.0461 34.2361 18.1398 34.2578 18.2338 34.2787C18.2825 34.2895 18.3313 34.3002 18.3801 34.3106C18.4831 34.3326 18.5864 34.3534 18.6901 34.3736C18.7323 34.3818 18.7745 34.3901 18.8168 34.398C18.9266 34.4185 19.0369 34.4376 19.1474 34.456C19.1853 34.4624 19.2232 34.4689 19.2612 34.4749C19.3752 34.4932 19.4898 34.5099 19.6046 34.5258C19.6402 34.5307 19.6757 34.536 19.7113 34.5408C19.8276 34.5562 19.9444 34.57 20.0612 34.5831C20.0961 34.5869 20.1308 34.5913 20.1657 34.5951C20.2824 34.6075 20.3994 34.618 20.5167 34.628C20.5523 34.631 20.5877 34.6347 20.6234 34.6375C20.7389 34.6466 20.855 34.6539 20.9713 34.6607C21.0086 34.663 21.0457 34.6659 21.0832 34.6679C21.2007 34.6741 21.3186 34.6783 21.4367 34.6821C21.4722 34.6833 21.5076 34.6851 21.5431 34.6861C21.6958 34.69 21.8489 34.6923 22.0026 34.6923C22.1561 34.6923 22.3093 34.69 22.4619 34.6861C22.4975 34.6851 22.5328 34.6833 22.5684 34.6821C22.6865 34.6783 22.8044 34.674 22.9218 34.6679C22.9591 34.6659 22.9963 34.663 23.0337 34.6607C23.15 34.6539 23.2661 34.6466 23.3817 34.6375C23.4174 34.6347 23.4528 34.631 23.4883 34.628C23.6056 34.618 23.7227 34.6074 23.8393 34.5951C23.8742 34.5914 23.9089 34.587 23.9438 34.5831C24.0608 34.5699 24.1775 34.5562 24.2937 34.5408C24.3294 34.536 24.3648 34.5308 24.4004 34.5258C24.5152 34.5099 24.6298 34.4932 24.7439 34.4749C24.7819 34.4688 24.8197 34.4623 24.8577 34.456C24.9682 34.4376 25.0784 34.4185 25.1883 34.398C25.2305 34.3901 25.2727 34.3819 25.3149 34.3736C25.4186 34.3535 25.5219 34.3325 25.6249 34.3106C25.6738 34.3002 25.7225 34.2895 25.7713 34.2787C25.8653 34.2578 25.959 34.2361 26.0524 34.2137C26.1099 34.1999 26.1674 34.1859 26.2248 34.1716C26.3061 34.1512 26.3869 34.1302 26.4678 34.1085C26.5371 34.09 26.6063 34.0716 26.6753 34.0522C26.7388 34.0343 26.8023 34.016 26.8655 33.9974C26.951 33.9725 27.0365 33.9473 27.1216 33.9211C27.1596 33.9093 27.1973 33.897 27.2351 33.8851C27.9023 33.6743 28.557 33.4244 29.1949 33.1336V40.7679H29.1947ZM26.8346 31.3435C26.784 31.3609 26.7333 31.3784 26.6825 31.3954C26.6054 31.4212 26.5279 31.4465 26.4501 31.471C26.3596 31.4994 26.2688 31.5269 26.1778 31.5535C26.1136 31.5724 26.0494 31.5912 25.9848 31.6093C25.8644 31.6429 25.7436 31.675 25.6223 31.7055C25.5771 31.717 25.5318 31.7278 25.4865 31.7388C25.3678 31.7675 25.2486 31.7948 25.1291 31.8206C25.0991 31.8271 25.0692 31.834 25.0392 31.8402C24.885 31.8724 24.7303 31.9024 24.575 31.9296C24.5592 31.9324 24.5433 31.9348 24.5274 31.9376C24.3875 31.9618 24.2472 31.9837 24.1066 32.0037C24.0749 32.0083 24.0431 32.0127 24.0113 32.0171C23.8613 32.0375 23.7111 32.0562 23.5604 32.072C23.5547 32.0726 23.549 32.0734 23.5433 32.074C23.3856 32.0904 23.2272 32.1039 23.0686 32.1152C23.0342 32.1177 22.9997 32.1195 22.9652 32.1218C22.8419 32.1298 22.7186 32.1361 22.5949 32.1411C22.5529 32.1428 22.5109 32.1445 22.4689 32.1459C22.3136 32.1506 22.1581 32.1539 22.0024 32.1539C21.8467 32.1539 21.6912 32.1507 21.5359 32.1457C21.4938 32.1444 21.4518 32.1426 21.4099 32.1409C21.2862 32.136 21.1629 32.1296 21.0395 32.1216C21.0051 32.1194 20.9706 32.1175 20.9362 32.115C20.7776 32.1037 20.6193 32.0902 20.4614 32.0739C20.4558 32.0732 20.4501 32.0725 20.4444 32.0719C20.2937 32.0561 20.1435 32.0373 19.9935 32.017C19.9618 32.0127 19.9301 32.0082 19.8983 32.0036C19.7576 31.9834 19.6173 31.9616 19.4774 31.9375C19.4616 31.9348 19.4457 31.9323 19.4298 31.9295C19.2745 31.9022 19.1197 31.8722 18.9656 31.84C18.9356 31.8337 18.9057 31.8268 18.8756 31.8204C18.7562 31.7947 18.637 31.7673 18.5183 31.7386C18.4729 31.7276 18.4276 31.7168 18.3824 31.7054C18.2612 31.6749 18.1404 31.6426 18.02 31.6091C17.9554 31.5911 17.8911 31.5722 17.8269 31.5533C17.736 31.5266 17.6452 31.4993 17.5546 31.4708C17.4768 31.4462 17.3994 31.421 17.3221 31.3952C17.2713 31.3783 17.2207 31.3607 17.1701 31.3433C11.3707 29.3357 7.19467 23.8197 7.19467 17.3461C7.19467 9.18122 13.8374 2.53842 22.0024 2.53842C30.1674 2.53842 36.8101 9.18113 36.8101 17.3461C36.8101 23.8197 32.634 29.3357 26.8346 31.3435Z" fill="white"/>
<path d="M29.5302 17.3461L31.9142 12.8653C32.1199 12.4788 32.1118 12.0137 31.8929 11.6346C31.674 11.2555 31.2752 11.0158 30.8377 11.0007L25.7652 10.825L23.0767 6.52002C22.8448 6.14877 22.438 5.9231 22.0002 5.9231C21.5624 5.9231 21.1556 6.14877 20.9237 6.52002L18.2353 10.825L13.1628 11.0007C12.7253 11.0158 12.3265 11.2555 12.1076 11.6346C11.8887 12.0137 11.8805 12.4788 12.0863 12.8653L14.4703 17.3461L12.0863 21.8269C11.8805 22.2133 11.8887 22.6785 12.1076 23.0576C12.3265 23.4366 12.7253 23.6763 13.1628 23.6914L18.2353 23.8672L20.9237 28.1721C21.1555 28.5434 21.5624 28.7691 22.0002 28.7691C22.438 28.7691 22.8448 28.5434 23.0767 28.1721L25.7651 23.8672L30.8376 23.6914C31.2751 23.6763 31.6739 23.4366 31.8928 23.0576C32.1117 22.6785 32.1198 22.2133 31.9141 21.8269L29.5302 17.3461ZM25.0024 21.3536C24.5805 21.3682 24.1934 21.5917 23.9699 21.9498L22.0002 25.1038L20.0306 21.9499C19.807 21.5918 19.4199 21.3684 18.998 21.3537L15.2819 21.2249L17.0284 17.9422C17.2268 17.5695 17.2268 17.1226 17.0284 16.7499L15.2819 13.4673L18.998 13.3385C19.4199 13.3239 19.8071 13.1003 20.0306 12.7422L22.0002 9.58842L23.9698 12.7423C24.1934 13.1004 24.5805 13.3239 25.0023 13.3386L28.7184 13.4674L26.9719 16.75C26.7737 17.1227 26.7737 17.5697 26.972 17.9423L28.7185 21.225L25.0024 21.3536Z" fill="white"/>
</svg>
