<svg width="40" height="40" viewBox="0 0 40 40" fill="none" xmlns="http://www.w3.org/2000/svg">
<g clip-path="url(#clip0_8247_229)">
<path d="M34.1422 5.85785C30.3647 2.08038 25.3421 0 20 0C14.6579 0 9.63531 2.08038 5.85785 5.85785C2.08038 9.63531 0 14.6579 0 20C0 25.3421 2.08038 30.3647 5.85785 34.1422C9.63531 37.9196 14.6579 40 20 40C25.3421 40 30.3647 37.9196 34.1422 34.1422C37.9196 30.3647 40 25.3421 40 20C40 14.6579 37.9196 9.63531 34.1422 5.85785ZM8.68011 33.5388C9.34052 27.8564 14.2261 23.4692 20 23.4692C23.0438 23.4692 25.9061 24.6552 28.0591 26.8079C29.8779 28.627 31.0251 31.0022 31.3202 33.5385C28.2532 36.1072 24.3042 37.6562 20 37.6562C15.6958 37.6562 11.7471 36.1075 8.68011 33.5388ZM20 21.0553C16.6507 21.0553 13.9255 18.3301 13.9255 14.9808C13.9255 11.6312 16.6507 8.90625 20 8.90625C23.3493 8.90625 26.0745 11.6312 26.0745 14.9808C26.0745 18.3301 23.3493 21.0553 20 21.0553ZM33.3374 31.5573C32.7402 29.1495 31.4948 26.9293 29.7162 25.1508C28.2758 23.7103 26.5717 22.6297 24.7131 21.9525C26.9473 20.4373 28.4183 17.8775 28.4183 14.9808C28.4183 10.3391 24.6417 6.5625 20 6.5625C15.3583 6.5625 11.5817 10.3391 11.5817 14.9808C11.5817 17.879 13.0539 20.4398 15.2899 21.9547C13.58 22.5778 11.9977 23.5413 10.6363 24.8096C8.66486 26.6455 7.29584 28.9865 6.66107 31.5555C3.97278 28.4564 2.34375 24.415 2.34375 20C2.34375 10.2643 10.2643 2.34375 20 2.34375C29.7357 2.34375 37.6562 10.2643 37.6562 20C37.6562 24.4159 36.0266 28.4583 33.3374 31.5573Z" fill="white"/>
</g>
<defs>
<clipPath id="clip0_8247_229">
<rect width="40" height="40" fill="white"/>
</clipPath>
</defs>
</svg>
